<svg xmlns="http://www.w3.org/2000/svg" xmlns:xlink="http://www.w3.org/1999/xlink" viewBox="0 0 116.83 119.06"><defs><style>.cls-1{fill:none;}.cls-2{isolation:isolate;}.cls-3{clip-path:url(#clip-path);}.cls-4{clip-path:url(#clip-path-2);}.cls-5{fill:url(#radial-gradient);}.cls-6{fill:#333;}.cls-7{clip-path:url(#clip-path-3);}.cls-8{fill:url(#linear-gradient);}.cls-9{opacity:0.2;mix-blend-mode:multiply;}.cls-10{clip-path:url(#clip-path-5);}.cls-11{fill:#878787;}</style><clipPath id="clip-path" transform="translate(8.11 8.03)"><rect class="cls-1" width="102" height="102.51"/></clipPath><clipPath id="clip-path-2" transform="translate(8.11 8.03)"><path class="cls-1" d="M2,51.8a50,50,0,1,0,50-50,50,50,0,0,0-50,50"/></clipPath><radialGradient id="radial-gradient" cx="0" cy="102.51" r="1" gradientTransform="matrix(50, 0, 0, -50, 60.11, 5185.52)" gradientUnits="userSpaceOnUse"><stop offset="0" stop-color="#f1f1f2"/><stop offset="0.43" stop-color="#efeff0"/><stop offset="0.58" stop-color="#e8e9ea"/><stop offset="0.69" stop-color="#dddedf"/><stop offset="0.76" stop-color="#d0d2d3"/><stop offset="0.82" stop-color="#c9cbcd"/><stop offset="1" stop-color="#bbbdbf"/></radialGradient><clipPath id="clip-path-3" transform="translate(8.11 8.03)"><path class="cls-1" d="M32.37,76.8c.86-5.08,4.76-17.83,5.54-20.34,2.25-.64,19.28-5.53,22.09-7.06L76.31,64.12c-.07,4.25-4.67,16.55-5.21,19.71-4.09,2.33-16.76,6-21,7.18-5.76-3.3-16.35-13-17.7-14.21m27.88-28c.17-3,1-18.49,1.06-21.31,0,0,0,0,0,0l16.76-6.76C80,21.92,88.37,27.6,94.43,34.58c.2,2.29,1.21,15.36-.8,21.22-4.4,3.12-14.74,7-16.92,7.84ZM23.31,10.84C27.64,9.66,34,8.07,37.08,8l2.34,12.56c-1.12,1.1-10,9.94-13.85,16.7-3.94.1-12.54,2.57-16,3.62-1-2.78-1-9.94-1.33-13.2A50.18,50.18,0,0,0,2.87,61.17a12.08,12.08,0,0,0,2.19,1.16c.27-5.91,3.87-18.66,4.5-20.85,3.33-1,11.95-3.5,15.85-3.65A69.92,69.92,0,0,0,37.33,56.18c-.73,2.35-4.74,15.44-5.6,20.62C27,78,16.34,78.95,16.34,78.95c-.12,1.83,2.58,7.7,4.82,12.21a49.77,49.77,0,0,0,23.15,10c2.38-2.58,5.11-8,5.87-9.57,4.13-1.15,16.29-4.65,20.89-7.09h0c.63.83,14.42,3.94,14.42,3.94,2.7-1.59,6.78-7.16,9.68-11.48a49.78,49.78,0,0,0,3.43-7.1c-.52-4.32-3.57-12-4.36-14,2-5.92,1.07-18.41.82-21.22a28.63,28.63,0,0,0,3-2.25,50.18,50.18,0,0,0-25-26,36.32,36.32,0,0,1,4.45,13.67l-16.8,6.78C58,25.09,43.06,21.29,40.06,20.53L37.7,7.81a109.14,109.14,0,0,1,13.71-6,49.76,49.76,0,0,0-28.1,9"/></clipPath><linearGradient id="linear-gradient" y1="102.5" x2="1" y2="102.5" gradientTransform="matrix(0, 101.65, 101.65, 0, -10368.93, -15.77)" gradientUnits="userSpaceOnUse"><stop offset="0" stop-color="#333"/><stop offset="0.4" stop-color="#2f2f2f"/><stop offset="0.83" stop-color="#212121"/><stop offset="0.98" stop-color="#1b1b1b"/><stop offset="1" stop-color="#1b1b1b"/></linearGradient><clipPath id="clip-path-5" transform="translate(8.11 8.03)"><rect class="cls-1" x="12.4" y="12.13" width="89.02" height="89.02"/></clipPath></defs><title>ball</title><g class="cls-2"><g id="Layer_1" data-name="Layer 1"><g class="cls-3"><g class="cls-4"><rect class="cls-5" x="10.11" y="9.82" width="100" height="100"/><path class="cls-6" d="M16.15,79.19C10.72,74.84,5,63,4.78,62.47l.57-.27c.06.12,5.88,12.24,11.19,16.5Z" transform="translate(8.11 8.03)"/></g><g class="cls-7"><rect class="cls-8" x="-2.83" y="-2.88" width="106.27" height="108.77" transform="translate(3.11 13.44) rotate(-5.87)"/></g><g class="cls-3"><g class="cls-9"><g class="cls-10"><path class="cls-11" d="M101.42,51.6a48.94,48.94,0,0,1-.44,6.57c0,.35-.09.69-.14,1a49,49,0,0,1-7.42,19.41l-.64,1A49.9,49.9,0,0,1,75.88,95h0l-1.46.79a49.46,49.46,0,0,1-22.52,5.4c-.68,0-1.35,0-2,0a44.62,44.62,0,0,1-5-.45h0a49.25,49.25,0,0,1-25-11.32c-.52-.44-1-.89-1.53-1.37a48,48,0,0,1-5.84-6.43,49.1,49.1,0,0,0,22.86,9.56h0a43.7,43.7,0,0,0,5,.46c.67,0,1.35,0,2,0a49.49,49.49,0,0,0,22.52-5.4l1.46-.78h0A49.9,49.9,0,0,0,83.22,70c.22-.32.44-.65.64-1a48.93,48.93,0,0,0,7.42-19.4c.06-.35.11-.69.15-1a49.73,49.73,0,0,0,.43-6.57A49.22,49.22,0,0,0,81.8,12.13,49.42,49.42,0,0,1,101.42,51.6" transform="translate(8.11 8.03)"/></g></g></g></g></g></g></svg>