<svg id="Layer_1" data-name="Layer 1" xmlns="http://www.w3.org/2000/svg" xmlns:xlink="http://www.w3.org/1999/xlink" viewBox="0 0 100 100"><defs><style>.cls-1{fill:none;}.cls-2{clip-path:url(#clip-path);}.cls-3{fill:url(#radial-gradient);}.cls-4{clip-path:url(#clip-path-2);}.cls-5{fill:url(#radial-gradient-2);}.cls-6{clip-path:url(#clip-path-3);}.cls-7{fill:url(#radial-gradient-3);}.cls-8{clip-path:url(#clip-path-4);}.cls-9{fill:url(#radial-gradient-4);}</style><clipPath id="clip-path" transform="translate(0 0)"><path class="cls-1" d="M50,0A49.82,49.82,0,0,0,28,5.07a1.53,1.53,0,0,1-1.51,1.41,1.48,1.48,0,0,1-.75-.23A50.12,50.12,0,0,0,2.35,34.83a1.51,1.51,0,0,1,.72,1.27,1.54,1.54,0,0,1-1.53,1.54A50.06,50.06,0,0,0,6.45,74.56a1.51,1.51,0,0,1,1.3,2.17A50,50,0,0,0,40.27,99a1.51,1.51,0,0,1,2.43.42A50.52,50.52,0,0,0,50,100a49.74,49.74,0,0,0,27.36-8.16,1.53,1.53,0,0,1,1.52-1.45,1.5,1.5,0,0,1,.45.09A50.1,50.1,0,0,0,97.08,66.85a1.51,1.51,0,0,1-.3-.86,1.52,1.52,0,0,1,1.06-1.44,50,50,0,0,0-.51-30.65,1.52,1.52,0,0,1-1.08-1.45,1.49,1.49,0,0,1,.25-.8A50.15,50.15,0,0,0,70.45,4.37a1.49,1.49,0,0,1-.68.18,1.52,1.52,0,0,1-1.44-1.07A49.88,49.88,0,0,0,50,0Z"/></clipPath><radialGradient id="radial-gradient" cx="0" cy="100" r="1" gradientTransform="matrix(79.46, 0, 0, -79.75, 36.85, 7996.9)" gradientUnits="userSpaceOnUse"><stop offset="0" stop-color="#ffb854"/><stop offset="0.43" stop-color="#ff5900"/><stop offset="0.82" stop-color="#a33800"/><stop offset="1" stop-color="#421200"/></radialGradient><clipPath id="clip-path-2" transform="translate(0 0)"><path class="cls-1" d="M69.77,4.55a1.77,1.77,0,0,1-.18,0,29.66,29.66,0,0,1,5.93,18.67c.43,11.12,1.64,21.94,5.59,30.39-.69.54-1.38,1.06-2.08,1.56-2.24,1.51-4.5,2.92-6.77,4.29-6-13.13-13.8-24.28-21-33.57C43.41,15.95,35.16,8.75,28.16,5L28,5.07a1.54,1.54,0,0,1-.21.63C39.12,12.05,47.5,23.5,54.69,33.13A184.71,184.71,0,0,1,70.76,60.31Q65.38,63.47,60,66.11C57.06,60.77,51.95,57,47.25,54.2A85.65,85.65,0,0,0,28,46,110,110,0,0,1,3,36.36a1.52,1.52,0,0,1-.34.74C12.86,42.93,24.15,46.6,34.38,50c9.67,3.55,19.39,9.4,24,17a148.88,148.88,0,0,1-21.22,8.26A57,57,0,0,1,7.87,76.42a1.55,1.55,0,0,1-.11.32c.11.18.24.36.36.54,12.32,3.09,25.78,1.46,37-2.88,4.84-1.87,9.57-3.83,14.1-5.93a16.63,16.63,0,0,1,1.52,10.89c-2.21,11.43-11.51,17.15-18,20.11h0c.49.07,1,.11,1.47.16a37.5,37.5,0,0,0,8.76-5.21C59.67,89.27,64,80.36,62.13,72a19.39,19.39,0,0,0-1.34-4.27C64.55,65.93,68.15,64,71.55,62A92.87,92.87,0,0,1,76.1,74.35a57.53,57.53,0,0,1,2.74,16h0a1.5,1.5,0,0,1,.45.09c.2-.15.39-.31.58-.46a67,67,0,0,0-4.69-23.66c-.69-1.78-1.43-3.51-2.18-5.22A82.15,82.15,0,0,0,81.77,55c0,.06.06.14.1.2,2.08,4.25,4.53,8.36,8.31,10.23a14.78,14.78,0,0,0,6.74,1.1,1.36,1.36,0,0,1-.13-.54,1.42,1.42,0,0,1,0-.3,14,14,0,0,1-6.25-1.31C86.95,62,84.75,58,83,53.95c1-.89,2.05-1.79,3-2.73A49.08,49.08,0,0,0,97.46,34.3l-.12-.39a1.57,1.57,0,0,1-.72-.5A51.76,51.76,0,0,1,82.44,52.49c-.4-1-.78-2-1.14-2.94-3.85-11.13-3.49-22.39-4.61-32a35.31,35.31,0,0,0-5.82-13l-.42-.2a1.49,1.49,0,0,1-.68.18"/></clipPath><radialGradient id="radial-gradient-2" cx="0" cy="100" r="1" gradientTransform="matrix(42.68, 0, 0, -42.84, 55.33, 4314.13)" gradientUnits="userSpaceOnUse"><stop offset="0" stop-color="#9b9796"/><stop offset="0.36"/><stop offset="1"/></radialGradient><clipPath id="clip-path-3" transform="translate(0 0)"><path class="cls-1" d="M2.68,37.1C12.86,42.93,24.15,46.6,34.38,50c9.67,3.55,19.39,9.4,24,17a148.88,148.88,0,0,1-21.22,8.26A57,57,0,0,1,7.87,76.42a1.55,1.55,0,0,1-.11.32c.11.18.24.36.36.54,12.32,3.09,25.78,1.46,37-2.88,4.84-1.87,9.57-3.83,14.1-5.93a16.63,16.63,0,0,1,1.52,10.89c-2.21,11.43-11.51,17.15-18,20.11h0c.49.07,1,.11,1.47.16a37.5,37.5,0,0,0,8.76-5.21C59.67,89.27,64,80.36,62.13,72a19.39,19.39,0,0,0-1.34-4.27c1.24-.59,2.46-1.19,3.67-1.81l-.86-1.65c-1.2.63-2.4,1.26-3.59,1.85C57.06,60.77,51.95,57,47.25,54.2A85.65,85.65,0,0,0,28,46,110,110,0,0,1,3,36.36a1.52,1.52,0,0,1-.34.74"/></clipPath><radialGradient id="radial-gradient-3" gradientTransform="matrix(36.33, 0, 0, -36.47, 16.28, 3688.49)" xlink:href="#radial-gradient-2"/><clipPath id="clip-path-4" transform="translate(0 0)"><path class="cls-1" d="M70.12,4.5l.09.93a29.47,29.47,0,0,1,5.32,17.76c.43,11.12,1.64,21.94,5.59,30.39-.65.51-1.31,1-2,1.48l.44,1.66q1.12-.84,2.2-1.71c0,.06.06.14.1.2,2.08,4.25,4.53,8.36,8.31,10.23a14.78,14.78,0,0,0,6.74,1.1,1.36,1.36,0,0,1-.13-.54,1.42,1.42,0,0,1,0-.3,14,14,0,0,1-6.25-1.31C86.95,62,84.75,58,83,53.95c1-.89,2.05-1.79,3-2.73A49.08,49.08,0,0,0,97.46,34.3l-.12-.39a1.57,1.57,0,0,1-.72-.5A51.76,51.76,0,0,1,82.44,52.49c-.4-1-.78-2-1.14-2.94-3.85-11.13-3.49-22.39-4.61-32a35.31,35.31,0,0,0-5.82-13l-.42-.2a1.8,1.8,0,0,1-.33.13"/></clipPath><radialGradient id="radial-gradient-4" gradientTransform="matrix(29.3, 0, 0, -29.41, 74.03, 2948.02)" xlink:href="#radial-gradient-2"/></defs><title>bascketBall</title><g class="cls-2"><rect class="cls-3" width="100" height="100"/></g><g class="cls-4"><rect class="cls-5" x="2.68" y="4.37" width="94.78" height="95.25"/></g><g class="cls-6"><rect class="cls-7" x="2.68" y="36.36" width="61.78" height="63.27"/></g><g class="cls-8"><rect class="cls-9" x="70.12" y="4.37" width="27.34" height="62.29"/></g></svg>