<svg id="Layer_1" data-name="Layer 1" xmlns="http://www.w3.org/2000/svg" xmlns:xlink="http://www.w3.org/1999/xlink" viewBox="0 0 512 512"><defs><style>.cls-1{fill:none;}.cls-2{fill:#229e45;}.cls-3{fill:#f8e509;}.cls-4{clip-path:url(#clip-path);}.cls-5{fill:#2b49a3;}.cls-6{fill:#ffffef;}.cls-7{fill:#fff;}.cls-8{fill:#309e3a;}.cls-9{fill:#f7ffff;}</style><clipPath id="clip-path"><rect class="cls-1" width="512" height="512"/></clipPath></defs><title>BrazilFlag</title><rect class="cls-2" width="512" height="512"/><polygon class="cls-3" points="261.36 405.39 491.23 256.2 259.97 106.61 29.34 256.56 261.36 405.39"/><g class="cls-4"><path class="cls-5" d="M361.52,256a97.25,97.25,0,1,1-97.25-97.09A97.17,97.17,0,0,1,361.52,256Z"/><path class="cls-6" d="M232.3,314.16l-3-1.73L226.18,314l.7-3.47L224.47,308l3.45-.4,1.62-3.11,1.44,3.22,3.4.62-2.55,2.39m65.65,20-3-1.74-3.12,1.54L292,327l-2.41-2.54,3.45-.41,1.62-3.11,1.44,3.22,3.4.62L297,327.17M269.38,304.3l-2.6-1.5-2.7,1.33.6-3-2.08-2.19,3-.35,1.4-2.69,1.25,2.78,2.94.53-2.2,2.06m66.23-6.46-2.55-1.47L330,294.66l.59-2.94-2-2.16,2.92-.34,1.37-2.64,1.23,2.73,2.88.52-2.16,2m-66.6-16.77-3-1.73-3.12,1.54.7-3.47-2.41-2.54,3.45-.4,1.62-3.11,1.45,3.22,3.4.62-2.55,2.39M187.95,245l-3-1.73-3.12,1.54.7-3.47-2.41-2.54,3.45-.4,1.62-3.11,1.44,3.22,3.4.62-2.55,2.39M197.6,285l-3-1.74-3.12,1.54.7-3.47-2.41-2.54,3.45-.4,1.62-3.11,1.44,3.22,3.4.62-2.55,2.39m100.61-51.34-2.65-1.53L292.32,230l.62-3.07-2.13-2.24,3-.36,1.43-2.75,1.27,2.84,3,.55-2.25,2.11m-5.08,29.16-2.09-1.21L288,256.15l.49-2.41L286.78,252l2.4-.28,1.13-2.16,1,2.24,2.37.43-1.77,1.66M183.48,292.3l-2-1.16-2.08,1,.47-2.32-1.61-1.7,2.3-.27,1.08-2.08,1,2.15,2.27.41-1.7,1.59m152.6,11.56-1.63-.87-1.7.77.38-1.73-1.31-1.27,1.87-.2.88-1.56.79,1.61,1.85.31-1.39,1.19"/><polyline class="cls-6" points="183.48 292.3 181.47 291.14 179.39 292.17 179.85 289.85 178.25 288.16 180.55 287.89 181.63 285.81 182.59 287.96 184.86 288.37 183.16 289.97"/><path class="cls-6" d="M183.48,292.3l-2-1.16-2.08,1,.47-2.31-1.61-1.7,2.3-.27,1.08-2.08,1,2.15,2.27.41-1.7,1.59m32.25,2.32-2-1.16-2.08,1,.47-2.32-1.61-1.7,2.3-.27,1.08-2.08,1,2.15,2.27.41-1.7,1.59m-3.65,13-2-1.16-2.08,1,.47-2.32-1.61-1.7,2.3-.27,1.08-2.08,1,2.15,2.27.41-1.7,1.59m66.63-17-2-1.16-2.08,1,.46-2.32-1.61-1.7,2.3-.27,1.08-2.08,1,2.15,2.27.41-1.7,1.59m-19.14,2.32-2-1.16-2.08,1,.47-2.31-1.61-1.7,2.3-.27,1.08-2.08,1,2.15,2.27.41-1.7,1.6m-52.46-4.45-1.26-.73-1.31.65.29-1.45-1-1.06,1.44-.17.68-1.3.6,1.35,1.42.26-1.07,1m128,34.61-2-1.16-2.08,1,.47-2.31-1.61-1.7,2.3-.27,1.08-2.07,1,2.15,2.27.41L333,307.6M317.08,312l-1.66-1-1.72.86.39-1.92-1.33-1.41,1.91-.22.89-1.72.8,1.78,1.88.34-1.41,1.32m7.91,1.75-1.55-.9-1.61.8.36-1.79-1.24-1.31,1.78-.21.83-1.6.74,1.66,1.75.32-1.31,1.23m22.2-17.35-1.49-.86-1.55.77.35-1.72-1.2-1.26,1.71-.2.8-1.54.72,1.6,1.69.3L346.44,291m-29.55,31.88-1.95-1.06-2,.95.45-2.13-1.56-1.56,2.23-.25,1-1.91.93,2,2.2.38-1.65,1.46m.42,10.86-1.77-1.06-1.84.95.41-2.12-1.43-1.56,2-.25,1-1.91.85,2,2,.38-1.51,1.46m-14.43-17.58L300.8,311l-1.55.77.35-1.72-1.2-1.26,1.71-.2.8-1.54.72,1.6,1.69.31L302,310.13m-13.56,1.74L287,311l-1.55.77.35-1.72-1.2-1.26,1.71-.2.8-1.54.72,1.6,1.69.31-1.27,1.18m-23.18-18.75-1.49-.86-1.55.77.35-1.72-1.2-1.26,1.71-.2.81-1.55.71,1.6,1.69.3-1.26,1.19m2.85,43.48-1.26-.73-1.31.65.29-1.46-1-1.07,1.45-.17.68-1.31.61,1.35,1.43.26-1.07,1M232.3,265.6l-3-1.73-3.12,1.54.7-3.47-2.41-2.54,3.45-.4,1.62-3.11,1.44,3.22,3.4.62-2.55,2.39"/><path class="cls-7" d="M355.11,290.93a95.06,95.06,0,0,0,4.41-15.09c-51.65-45.37-109.23-68.62-182-63.83a95.11,95.11,0,0,0-6.46,15.9c86.21-8.22,149.39,29.94,184,63Z"/><path class="cls-8" d="M331.89,265.42l1.85,1a2.58,2.58,0,0,0-.24,1.71,2.33,2.33,0,0,0,1,1.29,2.37,2.37,0,0,0,1.54.52,1.32,1.32,0,0,0,1-.56,1,1,0,0,0,.17-.66,1.77,1.77,0,0,0-.38-.82q-.24-.32-1.17-1.35a5.85,5.85,0,0,1-1.42-2.24,2.79,2.79,0,0,1,.39-2.33,2.73,2.73,0,0,1,1.23-1,2.89,2.89,0,0,1,1.71-.15,5.3,5.3,0,0,1,1.94.87,4.49,4.49,0,0,1,2,2.43,3.11,3.11,0,0,1-.43,2.55l-1.83-1.13a1.81,1.81,0,0,0,.17-1.31,2.13,2.13,0,0,0-.92-1.07,2.46,2.46,0,0,0-1.43-.5.78.78,0,0,0-.65.36.83.83,0,0,0-.1.72,5.66,5.66,0,0,0,1.24,1.7,10.21,10.21,0,0,1,1.49,1.94,3,3,0,0,1,.37,1.56,3.34,3.34,0,0,1-2,2.79,3.05,3.05,0,0,1-1.86.18,6,6,0,0,1-2.13-1,4.64,4.64,0,0,1-2.05-2.52,4.13,4.13,0,0,1,.46-3Zm-8.75-5.74,1.89.93a2.57,2.57,0,0,0-.17,1.72,2.32,2.32,0,0,0,1.07,1.25,2.37,2.37,0,0,0,1.56.46,1.31,1.31,0,0,0,1-.6,1,1,0,0,0,.15-.66,1.76,1.76,0,0,0-.41-.8c-.17-.21-.57-.64-1.22-1.31a5.92,5.92,0,0,1-1.51-2.18,2.81,2.81,0,0,1,.29-2.35,2.77,2.77,0,0,1,1.19-1.05,2.91,2.91,0,0,1,1.7-.22,5.32,5.32,0,0,1,2,.79,4.48,4.48,0,0,1,2.1,2.34,3.12,3.12,0,0,1-.33,2.57l-1.88-1.06a1.8,1.8,0,0,0,.12-1.32,2.14,2.14,0,0,0-1-1,2.44,2.44,0,0,0-1.45-.45.78.78,0,0,0-.64.38.83.83,0,0,0-.07.72,5.7,5.7,0,0,0,1.31,1.65,10.28,10.28,0,0,1,1.56,1.88,3,3,0,0,1,.43,1.55,3.34,3.34,0,0,1-1.86,2.87,3.06,3.06,0,0,1-1.85.26,6.1,6.1,0,0,1-2.17-.9,4.65,4.65,0,0,1-2.15-2.43,4.1,4.1,0,0,1,.34-3Zm-10.83-2.9,5.55-9.12,6.74,4.13-.94,1.54-4.9-3-1.23,2,4.56,2.8-.93,1.54-4.56-2.8-1.51,2.48,5.08,3.11-.94,1.54-6.91-4.24Zm-15.78-13,.82-1.6,4.12,2.13-1.94,3.79a5.88,5.88,0,0,1-2.27.13,7.17,7.17,0,0,1-2.53-.75,5.83,5.83,0,0,1-2.27-2,4.51,4.51,0,0,1-.74-2.65,6.56,6.56,0,0,1,.75-2.82,6.13,6.13,0,0,1,2-2.32,4.68,4.68,0,0,1,2.72-.83,5.51,5.51,0,0,1,2.51.7A5.06,5.06,0,0,1,302,239.8a3.76,3.76,0,0,1,.23,2.71l-2.08-.63a2.22,2.22,0,0,0-.19-1.49,2.53,2.53,0,0,0-1.16-1.12,2.91,2.91,0,0,0-2.41-.23,3.78,3.78,0,0,0-1.95,2,4.22,4.22,0,0,0-.56,2.93,2.83,2.83,0,0,0,1.53,1.86,3.69,3.69,0,0,0,1.32.39,4.69,4.69,0,0,0,1.33,0l.62-1.21-2.19-1.13Zm-68.81-17.06,1.55-10.57,3.18.47.86,7.49,2.94-6.93,3.19.47-1.55,10.58-2-.29,1.22-8.33-3.31,8-2-.3-.87-8.63L229.7,227l-2-.29ZM217,225.51l1-10.64,7.86.74-.17,1.8-5.72-.54-.22,2.36,5.32.5-.17,1.79-5.32-.5-.27,2.9,5.92.56-.17,1.8-8.06-.76Z"/><path class="cls-8" d="M181.37,218.85a6.83,6.83,0,0,1,.56-2.73,5.08,5.08,0,0,1,1-1.44,4.15,4.15,0,0,1,1.41-.92,5.83,5.83,0,0,1,2.3-.36,5,5,0,0,1,3.72,1.57,6.56,6.56,0,0,1-.21,8.13,5.59,5.59,0,0,1-7.52-.2,5.54,5.54,0,0,1-1.29-4Z"/><path class="cls-9" d="M183.59,218.83a4,4,0,0,0,.76,2.78,2.71,2.71,0,0,0,2.1,1,2.68,2.68,0,0,0,2.13-.87,4.1,4.1,0,0,0,.9-2.77,4,4,0,0,0-.73-2.76,3,3,0,0,0-4.27-.1,4,4,0,0,0-.89,2.73Z"/><path class="cls-8" d="M194,224.37l.13-10.69,4.52.05a7.59,7.59,0,0,1,2.47.32,2.42,2.42,0,0,1,1.23,1,3.09,3.09,0,0,1,.44,1.69,2.87,2.87,0,0,1-.73,2,3.38,3.38,0,0,1-2.12,1,5,5,0,0,1,1.14.91,12.16,12.16,0,0,1,1.21,1.75l1.28,2.1-2.57,0-1.53-2.34a14.43,14.43,0,0,0-1.11-1.58,1.6,1.6,0,0,0-.64-.45,3.45,3.45,0,0,0-1.08-.14h-.43l-.05,4.46-2.15,0Z"/><path class="cls-7" d="M196.22,218.22l1.59,0a8.13,8.13,0,0,0,1.93-.11,1.15,1.15,0,0,0,.61-.44,1.42,1.42,0,0,0,.23-.8,1.26,1.26,0,0,0-.28-.87,1.28,1.28,0,0,0-.8-.43c-.18,0-.7,0-1.57-.06l-1.68,0,0,2.71Z"/><path class="cls-8" d="M206.15,214.21l3.92.2a7.61,7.61,0,0,1,2,.31,3.54,3.54,0,0,1,1.55,1.07,4.67,4.67,0,0,1,.93,1.78,8,8,0,0,1,.22,2.54,7.09,7.09,0,0,1-.44,2.26,4.72,4.72,0,0,1-1.24,1.83,3.77,3.77,0,0,1-1.55.77,6.48,6.48,0,0,1-1.91.13l-4-.21.54-10.67Z"/><path class="cls-7" d="M208.21,216.11l-.36,7.07,1.6.08a5.73,5.73,0,0,0,1.3,0,2,2,0,0,0,.89-.4,2.24,2.24,0,0,0,.62-1,7,7,0,0,0,.32-1.95,6.43,6.43,0,0,0-.12-1.91,2.44,2.44,0,0,0-.56-1.07,2,2,0,0,0-1-.55,9.6,9.6,0,0,0-1.76-.19l-1-.05Z"/><path class="cls-8" d="M258.48,233.29,261,222.9l3.36.81a12.29,12.29,0,0,1,2.45.76,2.78,2.78,0,0,1,1.25,1.38,3.31,3.31,0,0,1,.12,2.16,3.48,3.48,0,0,1-.73,1.53,2.94,2.94,0,0,1-1.13.82,3.07,3.07,0,0,1-1.2.23,12.34,12.34,0,0,1-2.2-.37l-1.36-.33-.94,3.92-2.09-.5Z"/><path class="cls-7" d="M262.64,225.16l-.71,3,1.14.27a5.51,5.51,0,0,0,1.69.23,1.39,1.39,0,0,0,.77-.35,1.42,1.42,0,0,0,.43-.75,1.38,1.38,0,0,0-.11-1,1.5,1.5,0,0,0-.73-.66,10.27,10.27,0,0,0-1.49-.43l-1-.24Z"/><path class="cls-8" d="M268.37,236.26l3.54-10.08,4.27,1.51a7.62,7.62,0,0,1,2.24,1.1,2.44,2.44,0,0,1,.83,1.38,3.08,3.08,0,0,1-.12,1.74,2.86,2.86,0,0,1-1.32,1.64,3.38,3.38,0,0,1-2.31.23,5,5,0,0,1,.78,1.23,11.9,11.9,0,0,1,.59,2l.54,2.4-2.42-.86-.7-2.71a14.51,14.51,0,0,0-.55-1.86,1.62,1.62,0,0,0-.46-.63,3.44,3.44,0,0,0-1-.48l-.41-.14L270.41,237l-2-.72Z"/><path class="cls-7" d="M272.44,231.16l1.5.53a8.14,8.14,0,0,0,1.86.52,1.16,1.16,0,0,0,.72-.23,1.4,1.4,0,0,0,.47-.68,1.26,1.26,0,0,0,0-.92,1.29,1.29,0,0,0-.62-.67c-.16-.08-.65-.27-1.47-.56l-1.58-.56-.9,2.56Z"/><path class="cls-8" d="M280.88,235.87a6.83,6.83,0,0,1,1.28-2.47,5,5,0,0,1,1.38-1.11,4.18,4.18,0,0,1,1.6-.51,5.82,5.82,0,0,1,2.32.28,5,5,0,0,1,3.16,2.52,6.56,6.56,0,0,1-2.4,7.77,4.94,4.94,0,0,1-4,.27,5,5,0,0,1-3.17-2.51,5.55,5.55,0,0,1-.15-4.25Z"/><path class="cls-7" d="M283,236.47a4,4,0,0,0,0,2.88,2.74,2.74,0,0,0,1.75,1.52,2.68,2.68,0,0,0,2.28-.26,4.08,4.08,0,0,0,1.62-2.42,4,4,0,0,0,0-2.86,3,3,0,0,0-4.08-1.26,4,4,0,0,0-1.59,2.39Z"/><path class="cls-8" d="M301.69,250.75l4.89-9.49,4,2.09a7.66,7.66,0,0,1,2.07,1.4,2.44,2.44,0,0,1,.63,1.48,3.1,3.1,0,0,1-.36,1.71,2.86,2.86,0,0,1-1.54,1.44,3.37,3.37,0,0,1-2.32-.1,5.08,5.08,0,0,1,.61,1.33,12.14,12.14,0,0,1,.3,2.11l.2,2.45L307.91,254l-.32-2.78a14.21,14.21,0,0,0-.29-1.91,1.6,1.6,0,0,0-.37-.69,3.5,3.5,0,0,0-.9-.61l-.39-.2-2,4-1.91-1Z"/><path class="cls-7" d="M306.42,246.26l1.41.73a8.16,8.16,0,0,0,1.78.78,1.16,1.16,0,0,0,.74-.12,1.41,1.41,0,0,0,.56-.61,1.26,1.26,0,0,0,.14-.9,1.3,1.3,0,0,0-.52-.75c-.14-.1-.6-.35-1.38-.76l-1.49-.77-1.24,2.41Z"/><path class="cls-8" d="M341.19,270.26a6.78,6.78,0,0,1,1.93-2,5,5,0,0,1,1.64-.66,4.16,4.16,0,0,1,1.68,0,5.84,5.84,0,0,1,2.14.94,5,5,0,0,1,2.3,3.33,6.55,6.55,0,0,1-4.52,6.74,5,5,0,0,1-3.92-.9,5,5,0,0,1-2.32-3.33,5.54,5.54,0,0,1,1.08-4.11Z"/><path class="cls-7" d="M343.07,271.44a4,4,0,0,0-.85,2.75,2.75,2.75,0,0,0,1.24,2,2.69,2.69,0,0,0,2.26.42,4.08,4.08,0,0,0,2.25-1.85,4,4,0,0,0,.86-2.73,3,3,0,0,0-3.54-2.39,4,4,0,0,0-2.21,1.82Z"/><polygon class="cls-8" points="246.43 228.95 248.14 221.45 253.68 222.72 253.4 223.99 249.37 223.06 248.98 224.73 252.73 225.59 252.44 226.85 248.69 225.99 248.22 228.03 252.4 229 252.11 230.26 246.43 228.95 246.43 228.95"/></g></svg>